<svg width="72" height="72" viewBox="0 0 72 72" fill="none" xmlns="http://www.w3.org/2000/svg">
<path d="M37.3487 0.136443C36.8939 0.0606394 36.4277 0 35.9501 0C35.4763 0 35.0177 0.0492723 34.5515 0.136443C15.3803 0.875543 0 16.6918 0 36.0493C0 55.8726 16.1274 72 35.9507 72C55.774 72 71.9014 55.8726 71.9014 36.0493C71.9014 16.6927 56.5202 0.875814 37.3499 0.136443H37.3487ZM64.8549 22.173H50.7176C49.4667 14.945 47.2344 9.00599 44.3537 5.10537C53.3859 7.5614 60.8601 13.876 64.8549 22.173ZM47.9619 35.9503C47.9619 39.4146 47.7496 42.6856 47.3706 45.7106L24.5306 45.7144C24.1516 42.6784 23.9394 39.4188 23.9394 35.9541C23.9394 32.4406 24.163 29.1241 24.5496 26.058H47.3517C47.7383 29.1205 47.9619 32.4371 47.9619 35.9503ZM35.9505 68.0198C31.7699 68.0198 27.2481 60.8865 25.1404 49.5957H46.7597C44.6523 60.8871 40.1315 68.0198 35.9505 68.0198ZM25.1598 22.173C27.1193 11.7917 31.1256 4.96176 35.0181 4.00989C35.3288 3.99852 35.6397 3.99094 35.9505 3.99094C36.2612 3.99094 36.572 4.00989 36.8829 4.00989C40.7754 4.96125 44.7817 11.7912 46.7411 22.173H25.1598ZM27.5476 5.10537C24.667 9.0055 22.4346 14.9452 21.1838 22.173H7.04644C11.0414 13.8761 18.515 7.5612 27.5476 5.10537ZM5.48483 26.0542H20.6235C20.2558 29.1774 20.0625 32.4863 20.0625 35.9503C20.0625 39.3653 20.2559 42.625 20.6159 45.7106H5.38313C4.41283 42.6633 3.88974 39.415 3.88974 36.0455C3.88216 32.5547 4.44634 29.1964 5.48483 26.0542ZM6.891 49.5957H21.1651C22.4349 57.0473 24.7545 63.1305 27.7449 67.0495C18.4968 64.6048 10.878 58.1122 6.891 49.5957ZM44.1603 67.0495C47.1584 63.1304 49.4667 57.0467 50.7402 49.5957H65.0143C61.0231 58.1124 53.4044 64.6053 44.1603 67.0495ZM66.5268 45.7145H51.294C51.6541 42.6292 51.8474 39.3582 51.8474 35.9542C51.8474 32.4899 51.6427 29.181 51.2864 26.0581H66.4251C67.4636 29.2116 68.0246 32.5697 68.0246 36.0532C68.0208 39.4151 67.4971 42.6672 66.5268 45.7145Z" fill="#F4F4F4"/>
</svg>
