<svg width="73" height="73" viewBox="0 0 73 73" fill="none" xmlns="http://www.w3.org/2000/svg">
<path d="M57.6785 53.9721L62.3709 45.8447C63.2426 44.3261 62.866 42.3944 61.4871 41.3132L60.1751 40.2897L60.1781 40.2927C60.6519 37.6109 60.6519 34.8713 60.1781 32.1895L61.4841 31.169C62.866 30.0908 63.2426 28.1621 62.3709 26.6405L57.6785 18.5132C56.2813 16.1654 53.7605 16.5238 51.7894 17.6536C49.6968 15.9042 47.3187 14.5253 44.7613 13.5777C44.7735 11.6248 43.5252 8.6666 40.9618 8.9126H31.662C28.9467 8.94298 27.9809 11.3089 27.9778 13.5686L27.9748 13.5656C25.4144 14.5132 23.0363 15.889 20.9407 17.6354L19.4008 17.0128H19.3978C17.7729 16.3568 15.9111 16.9976 15.0303 18.5132L10.3378 26.6374C9.46616 28.156 9.84277 30.0877 11.2216 31.1689L12.5337 32.1924L12.5307 32.1894C12.0538 34.8712 12.0569 37.6168 12.5337 40.2958C7.54662 43.5668 10.8147 46.3671 12.8556 50.1998C14.924 53.7017 16.0508 57.5376 20.9099 54.8193H20.9069C23.0147 56.5809 25.405 57.9659 27.9805 58.9165C28.1415 61.741 29.3776 63.5846 31.6707 63.5694C34.0154 63.5634 36.8794 63.5725 39.2576 63.5725C42.48 63.864 44.5028 63.0288 44.7518 58.9074H44.7488C47.3182 57.9659 49.7024 56.5809 51.7981 54.8193C52.6728 55.53 53.8056 55.8429 54.9233 55.6819C56.041 55.521 57.0376 54.9014 57.6785 53.9721ZM54.0612 50.5158C52.5517 49.5712 50.6231 49.632 49.1775 50.6646C47.2185 52.417 44.9193 53.7473 42.4258 54.5764C40.7402 55.2203 39.6985 56.9181 39.8898 58.7131C37.6514 58.7131 35.0789 58.707 32.8435 58.707V58.71C32.9316 56.9302 31.9081 55.2841 30.2771 54.5734C27.729 53.7199 25.3872 52.3502 23.3948 50.5522C21.9613 49.5924 20.0965 49.5772 18.6477 50.5157C17.6151 48.7268 16.0904 46.0784 15.1277 44.414C16.7677 43.6608 17.7123 41.9175 17.4481 40.1316C17.1778 38.853 17.0381 37.55 17.035 36.241C16.8315 33.8355 18.6143 30.6586 16.1815 28.8758L15.1337 28.0557L18.6568 21.954H18.6537C20.1358 22.9775 22.11 22.9229 23.5314 21.8173C25.4327 20.1074 27.6589 18.7984 30.0766 17.9662C32.3909 17.4104 32.7158 15.0505 32.8404 13.7719H39.8927C39.7226 15.5608 40.7583 17.2495 42.4318 17.9085C44.8554 18.7073 47.0969 19.9829 49.0194 21.6624C50.4408 22.8834 52.5031 23.0049 54.0581 21.9631L57.5752 28.0557L56.5303 28.8697C54.0915 30.6586 55.8774 33.8324 55.6738 36.2409C55.8773 38.6464 54.0976 41.8233 56.5273 43.6061L57.5752 44.4262L54.0612 50.5158ZM72.2419 37.1246C71.8167 38.1846 70.7081 38.8042 69.5813 38.6159C68.4546 38.4245 67.6133 37.477 67.5555 36.3349C65.5631 -5.26846 7.14628 -5.26846 5.15039 36.338H5.15343C5.1838 44.5929 8.48214 52.5018 14.332 58.3332C20.1786 64.1615 28.0964 67.4356 36.3544 67.4418C37.6786 67.4843 38.7416 68.5473 38.7842 69.8715C38.7568 71.2018 37.6847 72.2739 36.3544 72.3013C26.7933 72.2891 17.6271 68.4866 10.8697 61.7255C4.10899 54.9678 0.306386 45.8019 0.293945 36.2408C2.42909 -12.3447 71.7956 -11.2974 72.2419 37.1246ZM53.1445 65.4946C53.6912 66.6974 53.1749 68.1188 51.9813 68.6867C50.7908 69.2577 49.3602 68.7657 48.771 67.5812C48.2213 66.3784 48.7376 64.9601 49.9312 64.3891C51.1249 63.8211 52.5523 64.3132 53.1445 65.4946ZM46.2198 68.4833C46.5023 69.7832 45.6883 71.0709 44.3914 71.3686C43.0945 71.6692 41.7977 70.8705 41.4818 69.5766C41.1993 68.2737 42.0133 66.989 43.3102 66.6883C44.6071 66.3906 45.9039 67.1894 46.2198 68.4833ZM68.8409 51.8879C68.2426 53.0694 66.806 53.5583 65.6124 52.9813C64.4188 52.4042 63.9086 50.9768 64.4674 49.771C65.0626 48.5865 66.4992 48.1006 67.6928 48.6776C68.8895 49.2547 69.3997 50.6822 68.8409 51.8879ZM64.1758 55.3138C65.1842 56.1612 65.333 57.6615 64.5068 58.6912C63.6838 59.7208 62.1864 59.903 61.1386 59.1043C60.1303 58.2538 59.9815 56.7566 60.8076 55.7269C61.6307 54.6973 63.125 54.515 64.1758 55.3138ZM59.2191 60.9994C60.0422 62.0443 59.866 63.5598 58.8273 64.392C57.7886 65.2272 56.27 65.0662 55.4287 64.0366C54.6087 62.9888 54.7848 61.4763 55.8235 60.6441C56.8622 59.8119 58.3747 59.9698 59.2191 60.9994ZM71.5132 44.2587C71.2125 45.5586 69.9157 46.3726 68.6127 46.0779C67.3097 45.7864 66.4867 44.4925 66.7752 43.1865C67.0789 41.8896 68.3728 41.0787 69.6757 41.3733C70.9756 41.6649 71.7957 42.9558 71.5132 44.2587ZM43.9992 41.4523C44.0417 44.7356 41.9187 47.6543 38.7844 48.6231C39.483 53.3125 33.2962 53.3976 33.9249 48.6991C31.3069 48.0704 27.0426 43.6726 30.6235 41.5344C31.8353 40.9634 33.2841 41.4797 33.8581 42.6916C34.3076 43.5967 35.2127 44.1889 36.2211 44.2375C37.2325 44.2861 38.1861 43.7819 38.7206 42.9255C39.2522 42.0659 39.2795 40.9847 38.7875 40.1009C38.2954 39.2171 37.3661 38.6704 36.3547 38.6704C27.8502 38.6917 25.7431 26.4611 33.9249 23.8579C33.2294 19.1624 39.4192 19.0865 38.7844 23.7911C41.3995 24.4198 45.6667 28.8085 42.0889 30.9467V30.9436C41.5057 31.2231 40.8375 31.2565 40.2271 31.0408C39.6197 30.8252 39.1246 30.3727 38.8513 29.7895C38.4018 28.8844 37.4967 28.2922 36.4883 28.2436C35.477 28.195 34.5233 28.6991 33.9888 29.5556C33.4573 30.4152 33.4299 31.4964 33.922 32.3802C34.414 33.264 35.3433 33.8107 36.3547 33.8107C40.5734 33.8137 43.9931 37.2337 43.9992 41.4523Z" fill="#F4F4F4"/>
</svg>
