<svg width="56" height="72" viewBox="0 0 56 72" fill="none" xmlns="http://www.w3.org/2000/svg">
<path d="M53.8405 11.3393L28.8758 0.243862C28.5182 0.0831143 28.1306 0 27.7386 0C27.3465 0 26.9589 0.0831143 26.6013 0.243862L1.63658 11.3393C1.1499 11.5581 0.736654 11.9125 0.446377 12.3603C0.1561 12.808 0.00111332 13.3299 0 13.8635V37.6077C0.0191069 40.9846 0.747533 44.3198 2.13807 47.3971C3.52861 50.4744 5.55023 53.2253 8.07192 55.4713L25.9078 71.31C26.414 71.7547 27.0648 72 27.7386 72C28.4123 72 29.0631 71.7547 29.5693 71.31L47.4052 55.4713C49.9269 53.2253 51.9485 50.4744 53.339 47.3971C54.7296 44.3198 55.458 40.9846 55.4771 37.6077V13.8635C55.476 13.3299 55.321 12.808 55.0307 12.3603C54.7405 11.9125 54.3272 11.5581 53.8405 11.3393ZM49.9294 37.6077C49.9347 40.2276 49.3836 42.8188 48.3125 45.2098C47.2413 47.6007 45.6746 49.7369 43.716 51.477L27.7386 65.6236L11.7611 51.4215C9.80253 49.6814 8.2358 47.5452 7.16465 45.1543C6.09351 42.7633 5.54237 40.1721 5.54771 37.5522V15.6665L27.7386 5.79157L49.9294 15.6665V37.6077Z" fill="#F4F4F4"/>
<path d="M19.4177 31.3109C18.8954 30.7886 18.187 30.4951 17.4483 30.4951C16.7096 30.4951 16.0012 30.7886 15.4789 31.3109C14.9565 31.8332 14.6631 32.5417 14.6631 33.2803C14.6631 34.019 14.9565 34.7274 15.4789 35.2498L22.4135 42.1844C22.6714 42.4444 22.9781 42.6508 23.3162 42.7916C23.6542 42.9324 24.0167 43.0049 24.3829 43.0049C24.7491 43.0049 25.1117 42.9324 25.4497 42.7916C25.7877 42.6508 26.0945 42.4444 26.3524 42.1844L40.2216 28.3151C40.744 27.7634 41.0257 27.0267 41.0049 26.2672C40.9841 25.5077 40.6624 24.7876 40.1107 24.2653C39.5589 23.743 38.8223 23.4612 38.0628 23.482C37.3033 23.5028 36.5832 23.8245 36.0609 24.3763L24.161 36.3038L19.4177 31.3109Z" fill="#F4F4F4"/>
</svg>
