<svg width="182" height="149" viewBox="0 0 182 149" fill="none" xmlns="http://www.w3.org/2000/svg">
<path d="M181.676 70.0553L173.523 74.7598L165.37 79.4803L165.378 60.6304L173.531 65.335L181.676 70.0553Z" fill="#314B43"/>
<path fill-rule="evenodd" clip-rule="evenodd" d="M165.721 114.564C169.753 114.564 173.025 117.837 173.025 121.869C173.025 125.901 169.753 129.174 165.721 129.174H168.209C173.673 129.182 178.098 133.614 178.106 139.079V149H153.312H128.518H103.725V139.079C103.749 133.606 108.181 129.182 113.646 129.174H116.133H116.142H116.15H118.622C124.086 129.182 128.51 133.614 128.518 139.079C128.542 133.606 132.975 129.182 138.44 129.174H140.927H143.415C148.88 129.182 153.304 133.614 153.312 139.079C153.336 133.614 157.753 129.19 163.217 129.174H165.713C161.681 129.174 158.409 125.901 158.409 121.869C158.409 117.837 161.681 114.564 165.713 114.564H165.721ZM148.232 121.869C148.232 125.901 144.959 129.174 140.927 129.174C136.886 129.174 133.623 125.901 133.623 121.869C133.623 117.837 136.887 114.564 140.927 114.564C144.96 114.564 148.232 117.837 148.232 121.869ZM123.438 121.869C123.438 125.899 120.178 129.169 116.142 129.174C112.113 129.169 108.846 125.899 108.846 121.869C108.846 117.84 112.113 114.569 116.142 114.564C120.178 114.569 123.438 117.84 123.438 121.869ZM53.5358 89.2587H43.9827V107.637H49.6233L53.5358 89.2587ZM94.3731 43.2148L94.3651 104.637C94.3651 105.845 95.0932 106.933 96.2133 107.397C97.3254 107.861 98.6136 107.597 99.4615 106.741C100.03 106.189 100.342 105.429 100.342 104.637V41.2467C100.35 40.0386 99.6216 38.9504 98.5014 38.4943C97.3893 38.0302 96.1011 38.2863 95.2532 39.1424C94.6851 39.7024 94.3651 40.4625 94.3651 41.2465L94.3731 43.2148ZM103.974 58.2725V87.6277C111.383 86.7156 116.951 80.419 116.951 72.9461C116.951 65.4814 111.383 59.1846 103.974 58.2725ZM35.8873 65.4173C33.1671 66.0733 31.0068 68.1455 30.2468 70.8497C29.4947 73.546 30.2548 76.4424 32.239 78.4185C33.2391 79.4346 34.5033 80.1467 35.8872 80.4667L35.8873 65.4173ZM68.5154 59.7367V86.1485L90.7262 99.4699V46.4313L68.5154 59.7367ZM64.8831 60.2648H39.5364V85.6197H64.8831V60.2648ZM136.507 71.13H136.515C137.003 71.114 137.483 71.298 137.835 71.634C138.187 71.9781 138.387 72.4501 138.387 72.9461C138.387 73.4342 138.187 73.9062 137.835 74.2503C137.483 74.5863 137.003 74.7703 136.515 74.7543H126.762C126.274 74.7703 125.794 74.5863 125.442 74.2503C125.09 73.9062 124.89 73.4342 124.89 72.9461C124.89 72.4501 125.09 71.978 125.442 71.634C125.794 71.298 126.274 71.114 126.762 71.13H136.507ZM61.2823 133.912C60.7943 133.928 60.3142 133.744 59.9622 133.4C59.6102 133.056 59.4101 132.584 59.4101 132.096C59.4101 131.6 59.6102 131.128 59.9622 130.792C60.3142 130.447 60.7943 130.263 61.2823 130.279H79.6442V108.325C79.6442 107.317 80.4603 106.5 81.4684 106.5C82.4685 106.5 83.2845 107.317 83.2845 108.325V132.102C83.2766 133.102 82.4685 133.903 81.4684 133.911L61.2823 133.912ZM83.2761 37.3182C83.2761 38.3263 82.46 39.1424 81.4599 39.1424C80.4518 39.1424 79.6357 38.3263 79.6357 37.3182V15.6194H61.2818C60.7938 15.6354 60.3137 15.4514 59.9537 15.1074C59.6017 14.7633 59.4016 14.2913 59.4016 13.7952C59.4016 13.2992 59.6017 12.8271 59.9537 12.4831C60.3137 12.1391 60.7938 11.9551 61.2818 11.9791H81.468C82.4681 11.9791 83.2842 12.7952 83.2842 13.7953L83.2761 37.3182ZM33.6867 110.173L0.827213 110.165V131.663H4.27559C4.75565 131.663 5.21969 131.855 5.56373 132.199C5.89976 132.535 6.09178 132.999 6.09178 133.487V136.528L11.7965 132.087C12.1245 131.807 12.5326 131.655 12.9646 131.655H33.6864L33.6867 110.173ZM139.297 0.816787L111.406 0.808786V18.8826H114.151C115.151 18.8906 115.959 19.7067 115.959 20.7068V22.8271L120.487 19.3149C120.815 19.0348 121.231 18.8828 121.655 18.8828H139.305L139.297 0.816787ZM118.151 8.28151V8.27351C117.655 8.28951 117.183 8.10549 116.831 7.76946C116.471 7.42542 116.271 6.95337 116.271 6.45733C116.271 5.96928 116.471 5.49723 116.831 5.1532C117.183 4.80916 117.655 4.62514 118.151 4.64915H124.872C125.36 4.62515 125.84 4.80917 126.192 5.1532C126.552 5.49723 126.752 5.96928 126.752 6.45733C126.752 6.95339 126.552 7.42544 126.192 7.76946C125.84 8.10549 125.36 8.28952 124.872 8.27351L118.151 8.28151ZM118.151 15.0742V15.0662C117.167 15.0262 116.391 14.2261 116.391 13.242C116.391 12.2579 117.167 11.4578 118.151 11.4258H133.057C133.553 11.4018 134.025 11.5858 134.385 11.9299C134.737 12.2739 134.937 12.746 134.937 13.242C134.937 13.7381 134.737 14.2101 134.385 14.5542C134.025 14.8982 133.553 15.0822 133.057 15.0662L118.151 15.0742ZM124.424 22.5389V28.4675H142.09V28.4595C142.514 28.4595 142.93 28.6115 143.258 28.8915L147.77 32.4038V30.2835C147.77 29.8034 147.962 29.3394 148.298 28.9954C148.642 28.6513 149.106 28.4593 149.586 28.4593H152.322V10.3854H142.946V20.7066C142.946 21.1946 142.754 21.6587 142.409 21.9947C142.065 22.3388 141.609 22.5308 141.121 22.5308L124.424 22.5389ZM8.93098 118.805C8.43492 118.829 7.96287 118.645 7.61084 118.301C7.2508 117.957 7.05078 117.485 7.05078 116.997C7.05078 116.501 7.2508 116.029 7.61084 115.693C7.96289 115.349 8.43492 115.165 8.93098 115.181H16.7158C17.6919 115.213 18.468 116.013 18.468 116.997C18.468 117.973 17.6919 118.773 16.7158 118.805H8.93098ZM8.93098 126.654V126.662C7.92286 126.662 7.11478 125.846 7.11478 124.838C7.11478 123.838 7.92286 123.021 8.93098 123.021H26.1808C27.1809 123.021 27.997 123.838 27.997 124.838C27.997 125.846 27.1809 126.662 26.1808 126.662L8.93098 126.654ZM15.8996 135.295V142.736L36.6378 142.744C37.0699 142.744 37.4859 142.896 37.8059 143.176L43.5106 147.608V144.56C43.5106 143.56 44.3187 142.752 45.3188 142.744H48.7911L48.7831 121.246H37.334V133.487C37.334 133.967 37.142 134.431 36.798 134.775C36.4619 135.111 35.9979 135.303 35.5098 135.303L15.8996 135.295Z" fill="#314B43"/>
<path d="M14.2426 10.9684C17.019 8.20798 21.4994 8.20798 24.2676 10.9684L24.7957 11.5044L25.3317 10.9684C28.1001 8.20798 32.5806 8.20798 35.3487 10.9684C38.1091 13.7367 38.1091 18.2172 35.3487 20.9854L34.8207 21.5214L24.7877 31.5384L14.7787 21.5214L14.2426 20.9854C11.4822 18.217 11.4822 13.7365 14.2426 10.9684Z" fill="#314B43"/>
</svg>
