<svg width="139" height="150" viewBox="0 0 139 150" fill="none" xmlns="http://www.w3.org/2000/svg">
<path d="M69.1836 34.3296V55.9654L86.4578 45.1475L69.1836 34.3296Z" fill="#314B43"/>
<path d="M114.424 77.2459C127.934 77.2459 138.884 66.468 138.884 52.9594C138.884 41.0482 130.365 31.135 119.09 28.9551C120.757 26.3428 121.737 23.2499 121.737 19.9232C121.737 10.6376 114.207 3.108 104.92 3.108C98.5938 3.108 93.0905 6.60491 90.2179 11.766C83.7782 4.54849 74.4125 0 63.9768 0C45.2521 0 29.9525 14.637 28.8825 33.0913C17.9461 34.1829 9.3766 43.2232 8.97934 54.3465C4.11871 54.4734 0.201172 58.4577 0.201172 63.3484V94.4016C0.201172 99.3724 4.2439 103.415 9.21469 103.415H43.4711V140.986C43.4711 145.957 47.5138 150 52.4846 150H115.175C120.146 150 124.189 145.957 124.189 140.986V97.0823C124.189 92.1115 120.146 88.0688 115.175 88.0688H63.8567V77.2859L114.424 77.2459ZM54.9516 28.1656H92.9152C95.3088 28.1656 97.2551 30.1135 97.2551 32.5054V57.79C97.2551 60.1836 95.3072 62.1299 92.9152 62.1299H63.7649C63.1673 57.7349 59.4 54.3332 54.8431 54.3332H50.6118V32.5054C50.6118 30.1118 52.5597 28.1656 54.9516 28.1656ZM119.517 97.0823V140.986C119.517 143.38 117.569 145.326 115.177 145.326H52.4863C50.0943 145.326 48.1464 143.378 48.1464 140.986V97.0823C48.1464 94.6887 50.0943 92.7425 52.4863 92.7425H115.177C117.569 92.7425 119.517 94.6904 119.517 97.0823ZM52.4863 88.0688C47.5171 88.0688 43.4727 92.1115 43.4727 97.0823V98.7414H9.21636C6.82277 98.7414 4.87652 96.7935 4.87652 94.4016V63.3467C4.87652 60.9531 6.82277 59.0068 9.21636 59.0068H54.8431C57.2351 59.0068 59.183 60.9548 59.183 63.3467V88.0688H52.4863Z" fill="#314B43"/>
<path d="M18.6824 74.9757C16.5292 74.974 14.7832 76.7217 14.7832 78.8732C14.7832 81.0265 16.5292 82.7724 18.6824 82.7724C20.8373 82.7724 22.5799 81.0265 22.5799 78.8732C22.5799 76.7233 20.8373 74.974 18.6824 74.9757Z" fill="#314B43"/>
<path d="M32.0313 74.9757C29.8781 74.974 28.1338 76.7217 28.1338 78.8732C28.1338 81.0265 29.8797 82.7724 32.0313 82.7724C34.1862 82.7724 35.9288 81.0265 35.9288 78.8732C35.9288 76.7233 34.1862 74.974 32.0313 74.9757Z" fill="#314B43"/>
<path d="M45.376 74.9757C43.2228 74.974 41.4785 76.7217 41.4785 78.8732C41.4785 81.0265 43.2245 82.7724 45.376 82.7724C47.5309 82.7724 49.2735 81.0265 49.2735 78.8732C49.2752 76.7233 47.5309 74.974 45.376 74.9757Z" fill="#314B43"/>
<path d="M76.3031 113.448C79.3426 113.448 81.8063 110.986 81.8063 107.949C81.8063 104.911 79.3426 102.445 76.3031 102.445C73.2618 102.445 70.7998 104.911 70.7998 107.949C70.7998 110.986 73.2618 113.448 76.3031 113.448Z" fill="#314B43"/>
<path d="M93.6064 114.057L81.994 128.986L71.565 120.692L58.1182 135.623H109.545L93.6064 114.057Z" fill="#314B43"/>
</svg>
