<svg width="121" height="120" viewBox="0 0 121 120" fill="none" xmlns="http://www.w3.org/2000/svg">
<path d="M86.6409 54.9517C69.2158 54.9517 55.0429 69.1273 55.0429 86.5497C55.0429 103.972 69.2158 118.148 86.6409 118.148C104.066 118.148 118.239 103.972 118.239 86.5497C118.239 69.1273 104.066 54.9517 86.6409 54.9517ZM86.6409 109.905C73.7613 109.905 63.2858 99.4267 63.2858 86.5497C63.2858 73.6728 73.7613 63.1947 86.6409 63.1947C99.5205 63.1947 109.996 73.6728 109.996 86.5497C109.996 99.4267 99.5205 109.905 86.6409 109.905ZM82.5194 81.0544C82.5194 81.8111 83.1365 82.4282 83.8932 82.4282H89.3885C94.6906 82.4282 99.0053 86.7429 99.0053 92.045C99.0053 96.8769 95.4108 100.849 90.7624 101.523V103.036C90.7624 105.311 88.9163 107.157 86.6409 107.157C84.3655 107.157 82.5194 105.311 82.5194 103.036V101.662H78.3979C76.1226 101.662 74.2765 99.8157 74.2765 97.5403C74.2765 95.265 76.1226 93.4189 78.3979 93.4189H89.3885C90.1452 93.4189 90.7624 92.8017 90.7624 92.045C90.7624 91.2883 90.1452 90.6712 89.3885 90.6712H83.8932C78.5912 90.6712 74.2765 86.3565 74.2765 81.0544C74.2765 76.2226 77.871 72.25 82.5194 71.5765V70.0638C82.5194 67.7884 84.3655 65.9423 86.6409 65.9423C88.9163 65.9423 90.7624 67.7884 90.7624 70.0638V71.4376H94.8839C97.1592 71.4376 99.0053 73.2837 99.0053 75.5591C99.0053 77.8345 97.1592 79.6806 94.8839 79.6806H83.8932C83.1365 79.6806 82.5194 80.2977 82.5194 81.0544ZM16.5758 42.5873C16.5758 50.9215 23.3537 57.6994 31.6878 57.6994C40.022 57.6994 46.7999 50.9215 46.7999 42.5873C46.7999 34.2531 40.022 27.4752 31.6878 27.4752C23.3537 27.4752 16.5758 34.2531 16.5758 42.5873ZM38.557 42.5873C38.557 46.376 35.4766 49.4564 31.6878 49.4564C27.8991 49.4564 24.8187 46.376 24.8187 42.5873C24.8187 38.7985 27.8991 35.7182 31.6878 35.7182C35.4766 35.7182 38.557 38.7985 38.557 42.5873ZM61.8399 115.906L59.8352 116.814C57.8764 117.702 55.7727 118.145 53.6691 118.145C51.5654 118.145 49.4617 117.702 47.5029 116.814L9.03581 99.3891C3.59953 96.9258 0.0898438 91.4332 0.0898438 85.3986V32.7478C0.0898438 26.7132 3.59953 21.2205 9.03581 18.7573L47.5029 1.33223C51.4205 -0.444075 55.9176 -0.444075 59.8352 1.33223L98.3023 18.7573C103.739 21.2205 107.248 26.7131 107.248 32.7478V54.1233C104.688 52.4905 101.927 51.1556 99.0053 50.1594V32.7478C99.0053 29.9411 97.3954 27.3974 94.8999 26.265L56.4328 8.83997C55.5527 8.44282 54.6136 8.24428 53.6691 8.24428C52.7245 8.24428 51.7854 8.44282 50.9053 8.83997L12.4382 26.265C9.94276 27.3947 8.3328 29.9411 8.3328 32.7478V79.6253L58.3594 52.4751C63.4751 49.6979 69.2746 48.8913 74.8144 49.9619C67.4147 52.3604 61.0101 56.9504 56.3255 62.9555L9.13341 88.5675C9.83846 90.0014 10.9516 91.2085 12.4382 91.8814L50.9053 109.306C52.4643 110.01 54.1977 109.985 55.8009 109.443C57.5692 111.818 59.5823 113.996 61.8399 115.906Z" fill="#314B43"/>
<path d="M38.557 42.5873C38.557 46.376 35.4766 49.4564 31.6878 49.4564C27.8991 49.4564 24.8187 46.376 24.8187 42.5873C24.8187 38.7985 27.8991 35.7182 31.6878 35.7182C35.4766 35.7182 38.557 38.7985 38.557 42.5873Z" fill="#314B43"/>
<circle cx="86.7609" cy="85.953" r="31.1799" fill="#314B43" stroke="#314B43" stroke-width="5.73423"/>
<path d="M88.2659 83.2293H85.3271C83.0334 83.2293 81.2415 81.2223 81.4565 78.9286C81.6715 76.9216 83.5352 75.4164 85.5421 75.4164H88.9827C90.2729 75.4164 91.348 76.3482 91.6348 77.5667C91.7064 77.9251 91.9931 78.1401 92.3515 78.1401H96.2938C96.7239 78.1401 97.0823 77.7817 97.0823 77.3517C96.6522 73.4094 93.4984 70.3272 89.4844 70.0405V66.1699C89.4844 65.7399 89.126 65.3815 88.696 65.3815H84.8254C84.3953 65.3815 84.0369 65.7399 84.0369 66.1699V70.1122C79.1628 70.7573 75.5072 75.1297 76.009 80.2905C76.5107 85.1646 80.8114 88.6768 85.6855 88.6768H88.1942C90.4879 88.6768 92.2799 90.6838 92.0648 92.9775C91.8498 94.9844 89.9862 96.4897 87.9792 96.4897H84.5386C83.2484 96.4897 82.1733 95.5579 81.8866 94.3393C81.8149 93.9809 81.5282 93.7659 81.1698 93.7659H77.2275C76.7974 93.7659 76.3674 94.1243 76.439 94.5544C76.8691 98.4967 80.0229 101.579 84.0369 101.866V105.736C84.0369 106.166 84.3953 106.525 84.8254 106.525H88.696C89.126 106.525 89.4844 106.166 89.4844 105.736V101.722C93.6417 101.005 97.0823 97.7799 97.5123 93.4792C98.0858 87.96 93.7134 83.2293 88.2659 83.2293Z" fill="#F4F4F4"/>
</svg>
